<?xml version="1.0" encoding="UTF-8" standalone="no"?>
<!-- Created with Inkscape (http://www.inkscape.org/) -->

<svg
   width="14.696704mm"
   height="9.9378548mm"
   viewBox="0 0 14.696704 9.9378547"
   version="1.1"
   id="svg1308"
   sodipodi:docname="DevKitty-Outline.svg"
   inkscape:version="1.1.2 (0a00cf5339, 2022-02-04)"
   xmlns:inkscape="http://www.inkscape.org/namespaces/inkscape"
   xmlns:sodipodi="http://sodipodi.sourceforge.net/DTD/sodipodi-0.dtd"
   xmlns="http://www.w3.org/2000/svg"
   xmlns:svg="http://www.w3.org/2000/svg">
  <sodipodi:namedview
     id="namedview25"
     pagecolor="#ffffff"
     bordercolor="#666666"
     borderopacity="1.0"
     inkscape:pageshadow="2"
     inkscape:pageopacity="0.0"
     inkscape:pagecheckerboard="0"
     inkscape:document-units="mm"
     showgrid="false"
     inkscape:zoom="15.693058"
     inkscape:cx="28.643239"
     inkscape:cy="22.079827"
     inkscape:window-width="1846"
     inkscape:window-height="1016"
     inkscape:window-x="714"
     inkscape:window-y="1107"
     inkscape:window-maximized="1"
     inkscape:current-layer="svg1308"
     fit-margin-top="0"
     fit-margin-left="0"
     fit-margin-right="0"
     fit-margin-bottom="0" />
  <defs
     id="defs1305" />
  <g
     id="layer3"
     style="display:inline"
     transform="translate(4.7955368,0.26107493)">
    <g
       id="layer1-3"
       transform="translate(-99.03161,-144.75135)" />
    <path
       id="path4575"
       style="display:inline;fill:#1f1f1f;stroke-width:0.106182"
       d="m 105.04297,145.23633 c -0.71238,0.0251 -1.42057,0.33092 -1.88086,0.91601 -0.0761,0.0967 -0.0659,0.21517 -0.0215,0.32032 -0.17432,0.0599 -0.25728,0.22522 -0.32819,0.34975 -0.0677,0.14717 -0.1265,0.33492 -0.18359,0.57617 -0.20825,1.082 -0.25119,1.9112 -0.31635,2.80856 0.002,0.14501 0.0109,0.30585 0.0937,0.4668 0.0828,0.16095 0.23858,0.28863 0.44336,0.375 0.40955,0.17273 1.05331,0.25125 2.26562,0.30273 0.008,3.5e-4 0.0156,3.5e-4 0.0234,0 1.21232,-0.0515 1.85604,-0.13 2.26563,-0.30273 0.20479,-0.0864 0.36056,-0.21597 0.44336,-0.37695 0.0828,-0.16099 0.0919,-0.31981 0.0937,-0.46485 -0.0691,-0.89009 -0.1048,-1.90722 -0.31445,-2.80859 -0.0573,-0.24129 -0.1176,-0.42903 -0.18554,-0.57617 -0.0915,-0.20967 -0.20778,-0.25784 -0.32825,-0.34971 0.0445,-0.10524 0.0547,-0.22262 -0.0195,-0.31836 -0.47127,-0.60722 -1.19093,-0.90453 -1.9043,-0.91797 h -0.002 c -0.0236,-4.4e-4 -0.0462,-1.9e-4 -0.0703,0 -0.0165,1.4e-4 -0.0386,-0.001 -0.0723,0 h -0.002 z"
       transform="translate(-102.57436,-145.497)" />
  </g>
  <g
     id="layer2"
     style="display:none"
     transform="translate(4.7955368,0.26107493)">
    <g
       id="layer1"
       transform="translate(-102.57436,-145.497)">
      <path
         id="path3470"
         style="display:inline;fill:#000000;fill-opacity:1;stroke:none;stroke-width:0.106182;stroke-linecap:butt;stroke-linejoin:miter;stroke-miterlimit:4;stroke-dasharray:none;stroke-opacity:1"
         d="m 105.11848,145.49709 c -0.0239,2e-4 -0.0479,3.9e-4 -0.0662,0.001 -0.64373,0.0227 -1.27855,0.30013 -1.68517,0.817 -0.0226,0.0287 -0.016,0.0699 0.0134,0.0915 l 0.17673,0.12919 c 0.0295,0.0216 0.0707,0.0151 0.0935,-0.0134 0.69346,-0.86526 2.23756,-0.90755 2.95279,-0.002 0.0226,0.0286 0.0639,0.0354 0.0935,0.014 l 0.17622,-0.12764 c 0.0296,-0.0214 0.0363,-0.0626 0.0139,-0.0915 -0.41754,-0.53799 -1.05793,-0.80589 -1.70274,-0.81804 -0.0182,-3.4e-4 -0.0422,-1.9e-4 -0.0661,0 z m -0.0253,0.64647 c -0.0239,1.2e-4 -0.0479,6.8e-4 -0.0661,0.002 -0.42165,0.0201 -0.82833,0.21351 -1.1622,0.55759 -0.0254,0.0262 -0.0233,0.0678 0.004,0.0925 l 0.16019,0.14728 c 0.0269,0.0247 0.0685,0.0225 0.094,-0.004 0.27506,-0.28117 0.58608,-0.4252 0.90589,-0.4439 0.0365,-0.002 0.0958,-0.002 0.13229,-5.1e-4 0.32443,0.016 0.66191,0.16091 0.98185,0.45475 0.0269,0.0247 0.0686,0.0242 0.0941,-0.002 l 0.15192,-0.15709 c 0.0254,-0.0262 0.0248,-0.0677 -0.002,-0.0925 -0.37699,-0.3482 -0.80269,-0.53744 -1.22731,-0.55346 -0.0183,-6.9e-4 -0.0422,-6.3e-4 -0.0662,-5.1e-4 z m -1.8278,0.56534 c -0.017,8e-4 -0.0341,0.004 -0.0517,0.0109 -0.20631,0.0761 -0.47523,0.95317 -0.60719,2.81068 0.13877,-0.04 0.23409,-0.0651 0.23409,-0.0651 0.0537,-0.015 0.10927,0.0169 0.12351,0.0708 0.0145,0.054 -0.0181,0.10944 -0.0724,0.12299 0,0 -0.1261,0.0327 -0.29921,0.0832 -0.005,0.0821 -0.0102,0.16603 -0.015,0.25115 0.10971,-0.031 0.18138,-0.0496 0.18138,-0.0496 0.0527,-0.0134 0.10643,0.0179 0.12092,0.0703 0.015,0.0536 -0.0166,0.10904 -0.0703,0.12351 0,0 -0.0961,0.025 -0.23512,0.0646 0.007,0.53611 0.14566,0.78558 2.55281,0.8878 2.40716,-0.10222 2.54611,-0.35169 2.55282,-0.8878 -0.13898,-0.0396 -0.23513,-0.0646 -0.23513,-0.0646 -0.0537,-0.0145 -0.0853,-0.07 -0.0703,-0.12351 0.0145,-0.0524 0.0682,-0.0836 0.12092,-0.0703 0,0 0.0717,0.0186 0.18139,0.0496 -0.005,-0.0851 -0.01,-0.16906 -0.015,-0.25115 -0.17311,-0.0505 -0.29921,-0.0832 -0.29921,-0.0832 -0.0543,-0.0136 -0.0869,-0.069 -0.0723,-0.12299 0.0142,-0.0539 0.0698,-0.0858 0.1235,-0.0708 0,0 0.0953,0.0251 0.2341,0.0651 -0.13196,-1.85751 -0.40089,-2.73458 -0.6072,-2.81068 -0.0176,-0.006 -0.0347,-0.0101 -0.0517,-0.0109 -0.25463,-0.0111 -0.68357,0.57682 -0.93792,1.03353 0,0 -0.29045,-0.13642 -0.92398,-0.13642 -0.63352,0 -0.92397,0.13642 -0.92397,0.13642 -0.25436,-0.45671 -0.6833,-1.04461 -0.93793,-1.03353 z m 1.81591,0.11834 c -0.0113,2.6e-4 -0.0219,0.001 -0.031,0.002 -0.26511,0.0161 -0.52192,0.13289 -0.77514,0.33125 -0.0288,0.0225 -0.0321,0.0644 -0.009,0.0925 l 0.13953,0.16795 c 0.0234,0.0281 0.0652,0.0317 0.094,0.009 0.20346,-0.1585 0.38022,-0.2354 0.55035,-0.25063 0.0364,-0.003 0.0959,-0.003 0.1323,5.2e-4 0.1725,0.0165 0.35834,0.0965 0.57464,0.25579 0.0294,0.0217 0.0705,0.0164 0.093,-0.0124 l 0.13384,-0.17105 c 0.0225,-0.0288 0.0169,-0.0702 -0.0124,-0.092 -0.26352,-0.1952 -0.52323,-0.31372 -0.7891,-0.33125 -0.0273,-0.002 -0.0675,-0.002 -0.10129,-0.002 z m -1.78749,0.25063 c 0.1302,-9.7e-4 0.25078,0.4729 0.31988,0.73019 -0.18458,0.0497 -0.33059,-0.0437 -0.57723,0.30748 -0.006,-0.44065 0.15563,-1.04348 0.25735,-1.03767 z m 3.66696,0 c 0.10172,-0.006 0.26321,0.59702 0.25735,1.03767 -0.24664,-0.35115 -0.39265,-0.25775 -0.57722,-0.30748 0.0691,-0.25729 0.18968,-0.73116 0.31987,-0.73019 z m -3.35431,1.85105 0.79633,0.40721 c 0,0 -0.42811,1.38695 -0.79633,-0.40721 z m 3.04167,0 c -0.36822,1.79416 -0.79633,0.40721 -0.79633,0.40721 z m -2.00608,0.81701 a 0.0875,0.0875 0 0 1 0.0269,0.003 0.0875,0.0875 0 0 1 0.0548,0.0393 l 0.20154,0.32814 0.19895,-0.27957 0.26975,0.22273 0.12661,-0.25787 a 0.0875,0.0875 0 0 1 0.11731,-0.0388 0.0875,0.0875 0 0 1 0.0393,0.11731 l -0.22479,0.45682 -0.29508,-0.24443 -0.24184,0.34003 -0.3421,-0.55242 a 0.0875,0.0875 0 0 1 0.0295,-0.12144 0.0875,0.0875 0 0 1 0.0393,-0.0124 z" />
    </g>
  </g>
  <g
     id="layer4"
     style="display:inline"
     transform="translate(4.7955368,0.26107493)">
    <g
       id="layer1-7"
       transform="translate(-102.57436,-145.497)"
       style="display:inline">
      <path
         id="path3470-5"
         style="display:inline;fill:#ffffff;fill-opacity:1;stroke:none;stroke-width:0.106182;stroke-linecap:butt;stroke-linejoin:miter;stroke-miterlimit:4;stroke-dasharray:none;stroke-opacity:1"
         d="m 105.11848,145.49709 c -0.0239,2e-4 -0.0479,3.9e-4 -0.0662,0.001 -0.64373,0.0227 -1.27855,0.30013 -1.68517,0.817 -0.0226,0.0287 -0.016,0.0699 0.0134,0.0915 l 0.17673,0.12919 c 0.0295,0.0216 0.0707,0.0151 0.0935,-0.0134 0.69346,-0.86526 2.23756,-0.90755 2.95279,-0.002 0.0226,0.0286 0.0639,0.0354 0.0935,0.014 l 0.17622,-0.12764 c 0.0296,-0.0214 0.0363,-0.0626 0.0139,-0.0915 -0.41754,-0.53799 -1.05793,-0.80589 -1.70274,-0.81804 -0.0182,-3.4e-4 -0.0422,-1.9e-4 -0.0661,0 z m -0.0253,0.64647 c -0.0239,1.2e-4 -0.0479,6.8e-4 -0.0661,0.002 -0.42165,0.0201 -0.82833,0.21351 -1.1622,0.55759 -0.0254,0.0262 -0.0233,0.0678 0.004,0.0925 l 0.16019,0.14728 c 0.0269,0.0247 0.0685,0.0225 0.094,-0.004 0.27506,-0.28117 0.58608,-0.4252 0.90589,-0.4439 0.0365,-0.002 0.0958,-0.002 0.13229,-5.1e-4 0.32443,0.016 0.66191,0.16091 0.98185,0.45475 0.0269,0.0247 0.0686,0.0242 0.0941,-0.002 l 0.15192,-0.15709 c 0.0254,-0.0262 0.0248,-0.0677 -0.002,-0.0925 -0.37699,-0.3482 -0.80269,-0.53744 -1.22731,-0.55346 -0.0183,-6.9e-4 -0.0422,-6.3e-4 -0.0662,-5.1e-4 z m -1.8278,0.56534 c -0.017,8e-4 -0.0341,0.004 -0.0517,0.0109 -0.20631,0.0761 -0.47523,0.95317 -0.60719,2.81068 0.13877,-0.04 0.23409,-0.0651 0.23409,-0.0651 0.0537,-0.015 0.10927,0.0169 0.12351,0.0708 0.0145,0.054 -0.0181,0.10944 -0.0724,0.12299 0,0 -0.1261,0.0327 -0.29921,0.0832 -0.005,0.0821 -0.0102,0.16603 -0.015,0.25115 0.10971,-0.031 0.18138,-0.0496 0.18138,-0.0496 0.0527,-0.0134 0.10643,0.0179 0.12092,0.0703 0.015,0.0536 -0.0166,0.10904 -0.0703,0.12351 0,0 -0.0961,0.025 -0.23512,0.0646 0.007,0.53611 0.14566,0.78558 2.55281,0.8878 2.40716,-0.10222 2.54611,-0.35169 2.55282,-0.8878 -0.13898,-0.0396 -0.23513,-0.0646 -0.23513,-0.0646 -0.0537,-0.0145 -0.0853,-0.07 -0.0703,-0.12351 0.0145,-0.0524 0.0682,-0.0836 0.12092,-0.0703 0,0 0.0717,0.0186 0.18139,0.0496 -0.005,-0.0851 -0.01,-0.16906 -0.015,-0.25115 -0.17311,-0.0505 -0.29921,-0.0832 -0.29921,-0.0832 -0.0543,-0.0136 -0.0869,-0.069 -0.0723,-0.12299 0.0142,-0.0539 0.0698,-0.0858 0.1235,-0.0708 0,0 0.0953,0.0251 0.2341,0.0651 -0.13196,-1.85751 -0.40089,-2.73458 -0.6072,-2.81068 -0.0176,-0.006 -0.0347,-0.0101 -0.0517,-0.0109 -0.25463,-0.0111 -0.68357,0.57682 -0.93792,1.03353 0,0 -0.29045,-0.13642 -0.92398,-0.13642 -0.63352,0 -0.92397,0.13642 -0.92397,0.13642 -0.25436,-0.45671 -0.6833,-1.04461 -0.93793,-1.03353 z m 1.81591,0.11834 c -0.0113,2.6e-4 -0.0219,0.001 -0.031,0.002 -0.26511,0.0161 -0.52192,0.13289 -0.77514,0.33125 -0.0288,0.0225 -0.0321,0.0644 -0.009,0.0925 l 0.13953,0.16795 c 0.0234,0.0281 0.0652,0.0317 0.094,0.009 0.20346,-0.1585 0.38022,-0.2354 0.55035,-0.25063 0.0364,-0.003 0.0959,-0.003 0.1323,5.2e-4 0.1725,0.0165 0.35834,0.0965 0.57464,0.25579 0.0294,0.0217 0.0705,0.0164 0.093,-0.0124 l 0.13384,-0.17105 c 0.0225,-0.0288 0.0169,-0.0702 -0.0124,-0.092 -0.26352,-0.1952 -0.52323,-0.31372 -0.7891,-0.33125 -0.0273,-0.002 -0.0675,-0.002 -0.10129,-0.002 z m -1.78749,0.25063 c 0.1302,-9.7e-4 0.25078,0.4729 0.31988,0.73019 -0.18458,0.0497 -0.33059,-0.0437 -0.57723,0.30748 -0.006,-0.44065 0.15563,-1.04348 0.25735,-1.03767 z m 3.66696,0 c 0.10172,-0.006 0.26321,0.59702 0.25735,1.03767 -0.24664,-0.35115 -0.39265,-0.25775 -0.57722,-0.30748 0.0691,-0.25729 0.18968,-0.73116 0.31987,-0.73019 z m -3.35431,1.85105 0.79633,0.40721 c 0,0 -0.42811,1.38695 -0.79633,-0.40721 z m 3.04167,0 c -0.36822,1.79416 -0.79633,0.40721 -0.79633,0.40721 z m -2.00608,0.81701 a 0.0875,0.0875 0 0 1 0.0269,0.003 0.0875,0.0875 0 0 1 0.0548,0.0393 l 0.20154,0.32814 0.19895,-0.27957 0.26975,0.22273 0.12661,-0.25787 a 0.0875,0.0875 0 0 1 0.11731,-0.0388 0.0875,0.0875 0 0 1 0.0393,0.11731 l -0.22479,0.45682 -0.29508,-0.24443 -0.24184,0.34003 -0.3421,-0.55242 a 0.0875,0.0875 0 0 1 0.0295,-0.12144 0.0875,0.0875 0 0 1 0.0393,-0.0124 z" />
    </g>
    <g
       aria-label="DevKitty"
       id="text11886"
       style="font-size:1.23472px;line-height:1.25;stroke-width:0.264583"
       transform="translate(-0.55552393)" />
    <g
       id="layer6"
       style="display:none">
      <g
         id="g93393"
         style="font-size:1.23472px;line-height:1.25;display:inline;stroke-width:0.264583"
         transform="translate(0.00274077)">
        <path
           d="M -0.07932566,6.6929278 V 6.0014832 h 0.25385895 q 0.10964336,0 0.18965338,0.04445 0.0809978,0.04445 0.12544781,0.1224845 0.0454378,0.078035 0.0454378,0.1787878 0,0.1007534 -0.0454378,0.1787879 -0.04445,0.078034 -0.12544781,0.1224844 -0.08001,0.04445 -0.18965338,0.04445 z M 0.08662105,6.5546389 h 0.08396113 q 0.0572911,0 0.10174113,-0.024694 0.0454378,-0.025682 0.07112,-0.072108 0.0256822,-0.046426 0.0256822,-0.1106312 0,-0.064205 -0.0256822,-0.1106311 -0.0256822,-0.046426 -0.07112,-0.07112 -0.04445,-0.025682 -0.10174113,-0.025682 H 0.08662105 Z"
           style="font-weight:bold;font-size:0.987778px;font-family:MuseoModerno;-inkscape-font-specification:'MuseoModerno Bold';letter-spacing:0.0396875px;fill:#ffffff;stroke-width:0.0700042"
           id="path69636" />
        <path
           d="m 0.84354596,6.6929258 c -0.038853,0 -0.074083,-0.00889 -0.10569226,-0.02667 C 0.7062448,6.6478168 0.6808919,6.6234518 0.6617948,6.5931608 0.6433563,6.5622098 0.634137,6.5273088 0.634137,6.4884563 c 0,-0.1376476 0.002963,-0.2019035 0.002963,-0.287444 0,-0.038194 0.009219,-0.072108 0.0276578,-0.1017411 0.0184385,-0.030292 0.043133,-0.053999 0.0740833,-0.07112 0.03095,-0.01778 0.065193,-0.02667 0.102729,-0.02667 h 0.2913948 v 0.138289 H 0.86725266 c -0.012512,0 -0.024036,0.00296 -0.034572,0.00889 -0.010536,0.00593 -0.019097,0.013829 -0.025682,0.023707 -0.00593,0.00988 -0.00889,0.021402 -0.00889,0.034572 0,0.012512 0.00296,0.024036 0.00889,0.034572 0.00659,0.00988 0.015146,0.01778 0.025682,0.023707 0.010536,0.00527 0.02206,0.0079 0.034572,0.0079 H 1.0993805 V 6.4114091 H 0.8721916 c -0.013829,0 -0.026341,0.00329 -0.037536,0.00988 -0.011195,0.00659 -0.020085,0.015147 -0.02667,0.025682 -0.00659,0.010536 -0.00988,0.022719 -0.00988,0.036548 0,0.013171 0.00329,0.025353 0.00988,0.036548 0.00659,0.010536 0.015475,0.018767 0.02667,0.024694 0.011195,0.00593 0.023707,0.00889 0.037536,0.00889 h 0.2607733 v 0.1392767 z"
           style="font-weight:bold;font-size:0.987778px;font-family:MuseoModerno;-inkscape-font-specification:'MuseoModerno Bold';letter-spacing:0.0396875px;fill:#ffffff;stroke-width:0.0700042"
           id="path69638" />
        <path
           d="m 1.5846664,6.6929278 q -0.049389,0 -0.087912,-0.022719 -0.037535,-0.022719 -0.054328,-0.069145 L 1.2320296,5.9896298 h 0.1787878 l 0.1600201,0.5353757 q 0.00198,0.00593 0.00494,0.00889 0.00395,0.00296 0.00889,0.00296 0.00494,0 0.0079,-0.00198 0.00395,-0.00296 0.00593,-0.00988 L 1.7614786,5.9896298 H 1.9363153 L 1.7269064,6.6010644 q -0.015804,0.04445 -0.054328,0.068157 -0.038523,0.023707 -0.087912,0.023706 z"
           style="font-weight:bold;font-size:0.987778px;font-family:MuseoModerno;-inkscape-font-specification:'MuseoModerno Bold';letter-spacing:0.0396875px;fill:#ffffff;stroke-width:0.0700042"
           id="path69640" />
        <path
           id="path78056"
           style="font-weight:bold;font-size:0.987778px;font-family:MuseoModerno;-inkscape-font-specification:'MuseoModerno Bold';letter-spacing:0.0396875px;fill:#ffffff;stroke-width:0.0700042"
           d="M 2.03538,6.0014969 V 6.312589 6.381319 6.6929278 H 2.2012614 V 6.4133579 H 2.315983 c 0.019097,0 0.036389,0.00398 0.052193,0.011886 0.016463,0.0079 0.029022,0.019335 0.038241,0.03514 0.00922,0.015805 0.013953,0.034221 0.013953,0.055294 V 6.6929275 H 2.5862508 V 6.5151606 c 0,-0.044121 -0.01045,-0.083954 -0.031523,-0.1188559 -0.011195,-0.018541 -0.024362,-0.034971 -0.039274,-0.049609 0.014802,-0.014575 0.028145,-0.03066 0.039274,-0.049093 0.021073,-0.034901 0.031523,-0.074218 0.031523,-0.1183388 V 6.0014969 H 2.4203694 v 0.1767332 c 0,0.021073 -0.00473,0.039489 -0.013953,0.055294 -0.00922,0.015805 -0.021778,0.027757 -0.038241,0.035657 -0.015804,0.0079 -0.033096,0.011886 -0.052193,0.011886 H 2.2012614 V 6.0014969 Z" />
        <path
           d="M 2.6853153,6.6929278 V 6.5546389 H 2.8048364 V 6.1397722 H 2.6853153 v -0.138289 h 0.4040012 v 0.138289 H 2.9697954 v 0.4148667 h 0.1195211 v 0.1382889 z"
           style="font-weight:bold;font-size:0.987778px;font-family:MuseoModerno;-inkscape-font-specification:'MuseoModerno Bold';letter-spacing:0.0396875px;fill:#ffffff;stroke-width:0.0700042"
           id="path69644" />
        <path
           d="M 3.3760591,6.6929278 V 6.1397722 h -0.187678 v -0.138289 h 0.5403146 v 0.138289 h -0.18669 v 0.5531556 z"
           style="font-weight:bold;font-size:0.987778px;font-family:MuseoModerno;-inkscape-font-specification:'MuseoModerno Bold';letter-spacing:0.0396875px;fill:#ffffff;stroke-width:0.0700042"
           id="path69646" />
        <path
           d="M 4.0154383,6.6929278 V 6.1397722 H 3.8277604 v -0.138289 h 0.5403145 v 0.138289 h -0.18669 v 0.5531556 c -0.088786,0 -0.055628,0 -0.1659466,0 z"
           style="font-weight:bold;font-size:0.987778px;font-family:MuseoModerno;-inkscape-font-specification:'MuseoModerno Bold';letter-spacing:0.0396875px;fill:#ffffff;stroke-width:0.0700042"
           id="path69648" />
        <path
           d="M 4.675561,6.6929278 V 6.5042622 Q 4.6123433,6.4894456 4.5649299,6.4528978 4.5185043,6.4153622 4.4928221,6.3590589 4.4671399,6.3017677 4.4671399,6.2276844 V 6.0014832 h 0.1619956 v 0.2350912 q 0,0.037536 0.015804,0.069144 0.015804,0.030621 0.04445,0.049389 0.029633,0.01778 0.069144,0.01778 0.039511,0 0.068157,-0.01778 0.029633,-0.018768 0.045438,-0.049389 0.015804,-0.031609 0.015804,-0.069144 V 6.0014832 h 0.1619956 v 0.2262012 q 0,0.074083 -0.025682,0.1313745 -0.025682,0.056303 -0.073096,0.093839 -0.047413,0.037536 -0.1106311,0.051364 v 0.1886656 z"
           style="font-weight:bold;font-size:0.987778px;font-family:MuseoModerno;-inkscape-font-specification:'MuseoModerno Bold';letter-spacing:0.0396875px;fill:#ffffff;stroke-width:0.0700042"
           id="path69650" />
      </g>
    </g>
    <g
       id="layer7" />
  </g>
  <g
     aria-label="DevKitty"
     id="text1460"
     style="font-size:3.52778px;line-height:1.25;fill:#ffffff;stroke-width:0.264583">
    <path
       d="M 0,9.221715 V 6.7522689 h 0.90663947 q 0.39158363,0 0.67733373,0.1587501 0.289278,0.1587501 0.4480281,0.4374448 0.1622779,0.2786946 0.1622779,0.6385282 0,0.3598335 -0.1622779,0.6385281 Q 1.8732512,8.9042148 1.5839732,9.0629649 1.2982231,9.221715 0.90663947,9.221715 Z M 0.59266705,8.7278258 h 0.2998613 q 0.20461125,0 0.36336135,-0.088195 0.1622779,-0.091722 0.2540002,-0.257528 0.091722,-0.1658056 0.091722,-0.3951113 0,-0.2293057 -0.091722,-0.3951114 Q 1.4181676,7.4260749 1.2558897,7.3378804 1.0971396,7.2461581 0.89252835,7.2461581 h -0.2998613 z"
       style="font-weight:bold;font-family:MuseoModerno;-inkscape-font-specification:'MuseoModerno Bold'"
       id="path7420" />
    <path
       d="m 3.4431081,9.221715 q -0.3069168,0 -0.5397503,-0.112889 -0.2328335,-0.1164167 -0.3633614,-0.3175002 -0.127,-0.2046112 -0.127,-0.4727225 0,-0.2963335 0.1234723,-0.5080003 0.1234723,-0.2116669 0.3280835,-0.3245558 0.208139,-0.1164168 0.4586114,-0.1164168 0.2857502,0 0.4762503,0.1199446 0.1940279,0.1199445 0.2928058,0.3280835 0.098778,0.2046113 0.098778,0.4691948 0,0.045861 -0.00706,0.1093611 -0.00353,0.059972 -0.010583,0.09525 H 2.9880245 q 0.021167,0.091722 0.081139,0.1552223 0.059972,0.0635 0.1516945,0.09525 0.091722,0.028222 0.2046112,0.028222 H 3.9793307 V 9.221715 Z M 2.9739134,8.1492698 H 3.6618305 Q 3.6547749,8.0928254 3.6406638,8.0399087 3.6265527,7.986992 3.5948027,7.9481864 3.5665804,7.905853 3.5277749,7.8776308 3.4889693,7.8458808 3.4360526,7.8282419 3.3866637,7.810603 3.3231636,7.810603 q -0.081139,0 -0.144639,0.028222 -0.0635,0.028222 -0.1058334,0.077611 -0.042333,0.045861 -0.067028,0.1093611 -0.021167,0.059972 -0.03175,0.1234723 z"
       style="font-weight:bold;font-family:MuseoModerno;-inkscape-font-specification:'MuseoModerno Bold'"
       id="path7422" />
    <path
       d="m 5.2987186,9.2640483 q -0.1622779,0 -0.2963336,-0.084667 Q 4.8683294,9.0947149 4.8189405,8.9500759 L 4.3038846,7.4119638 h 0.5997226 l 0.3633613,1.2911675 q 0.00706,0.014111 0.014111,0.021167 0.010583,0.00706 0.021167,0.00706 0.014111,0 0.021167,-0.00706 0.010583,-0.00706 0.014111,-0.021167 L 5.707941,7.4119638 H 6.2935525 L 5.7784966,8.9500759 q -0.049389,0.144639 -0.1834445,0.2293057 -0.1305279,0.084667 -0.2963335,0.084667 z"
       style="font-weight:bold;font-family:MuseoModerno;-inkscape-font-specification:'MuseoModerno Bold'"
       id="path7424" />
    <path
       d="M 6.5440235,9.221715 V 6.7522689 h 0.5926671 v 0.9983618 h 0.4092225 q 0.1023056,0 0.1869723,-0.042333 0.088195,-0.042333 0.1375834,-0.1270001 0.049389,-0.084667 0.049389,-0.1975556 V 6.7522689 h 0.5926671 v 0.6350004 q 0,0.2363613 -0.112889,0.4233337 -0.1128889,0.1869723 -0.2963335,0.2998613 l 0.2681113,0.5644448 q 0.010583,0.028222 0.035278,0.042333 0.028222,0.014111 0.059972,0.014111 H 8.6889138 V 9.221715 H 8.3467191 q -0.1940279,0 -0.3139724,-0.074083 Q 7.9128022,9.0735482 7.8493021,8.9430203 L 7.514163,8.2445199 q -0.028222,0 -0.052917,0 -0.024694,0 -0.052917,0 H 7.1366906 V 9.221715 Z"
       style="font-weight:bold;font-family:MuseoModerno;-inkscape-font-specification:'MuseoModerno Bold'"
       id="path7426" />
    <path
       d="M 8.9217401,9.221715 V 7.4119638 H 9.4720738 V 9.221715 Z M 9.196907,7.2073526 q -0.1305279,0 -0.225778,-0.09525 -0.09525,-0.09525 -0.09525,-0.2257779 0,-0.1305279 0.09525,-0.2257779 0.09525,-0.098778 0.225778,-0.098778 0.1305278,0 0.2257779,0.098778 0.09525,0.09525 0.09525,0.2257779 0,0.1305278 -0.09525,0.2257779 -0.09525,0.09525 -0.2257779,0.09525 z"
       style="font-weight:bold;font-family:MuseoModerno;-inkscape-font-specification:'MuseoModerno Bold'"
       id="path7428" />
    <path
       d="m 10.537458,9.221715 q -0.250472,0 -0.391583,-0.1411112 Q 10.004764,8.9359648 10.004764,8.692548 V 6.9709913 h 0.550333 v 1.6898066 q 0,0.042333 0.02822,0.074083 0.03175,0.028222 0.07408,0.028222 h 0.395111 V 9.221715 Z M 9.70843,7.8599919 V 7.4119638 h 1.344084 v 0.4480281 z"
       style="font-weight:bold;font-family:MuseoModerno;-inkscape-font-specification:'MuseoModerno Bold'"
       id="path7430" />
    <path
       d="m 12.050873,9.221715 q -0.250473,0 -0.391584,-0.1411112 Q 11.518178,8.9359648 11.518178,8.692548 V 6.9709913 h 0.550334 v 1.6898066 q 0,0.042333 0.02822,0.074083 0.03175,0.028222 0.07408,0.028222 h 0.395112 V 9.221715 Z M 11.221844,7.8599919 V 7.4119638 h 1.344085 v 0.4480281 z"
       style="font-weight:bold;font-family:MuseoModerno;-inkscape-font-specification:'MuseoModerno Bold'"
       id="path7432" />
    <path
       d="M 13.529008,9.9378543 V 9.2322983 Q 13.331453,9.1829094 13.190341,9.0735482 13.04923,8.9606592 12.975147,8.8019091 12.901064,8.6396313 12.901064,8.4526589 V 7.4119638 h 0.546805 V 8.43502 q 0,0.09525 0.04586,0.176389 0.04586,0.081139 0.123472,0.1305279 0.08114,0.045861 0.179917,0.045861 0.102305,0 0.179916,-0.045861 0.08114,-0.049389 0.127001,-0.1305279 0.04586,-0.081139 0.04586,-0.176389 V 7.4119638 h 0.546806 v 1.0406951 q 0,0.1869724 -0.07408,0.3457225 -0.07055,0.1587501 -0.211667,0.271639 -0.137583,0.112889 -0.335139,0.1587501 v 0.7090838 z"
       style="font-weight:bold;font-family:MuseoModerno;-inkscape-font-specification:'MuseoModerno Bold'"
       id="path7434" />
  </g>
</svg>
