<?xml version="1.0" encoding="UTF-8" standalone="no"?>
<!-- Created with Inkscape (http://www.inkscape.org/) -->

<svg
   width="5.1056299mm"
   height="5.5931325mm"
   viewBox="0 0 5.1056299 5.5931325"
   version="1.1"
   id="svg1308"
   xmlns="http://www.w3.org/2000/svg"
   xmlns:svg="http://www.w3.org/2000/svg">
  <defs
     id="defs1305" />
  <g
     id="layer1"
     transform="translate(-102.57436,-145.497)">
    <path
       id="path3470"
       style="display:inline;fill:#000000;fill-opacity:1;stroke:none;stroke-width:0.106182;stroke-linecap:butt;stroke-linejoin:miter;stroke-miterlimit:4;stroke-dasharray:none;stroke-opacity:1"
       d="m 105.11848,145.49709 c -0.0239,2e-4 -0.0479,3.9e-4 -0.0662,0.001 -0.64373,0.0227 -1.27855,0.30013 -1.68517,0.817 -0.0226,0.0287 -0.016,0.0699 0.0134,0.0915 l 0.17673,0.12919 c 0.0295,0.0216 0.0707,0.0151 0.0935,-0.0134 0.69346,-0.86526 2.23756,-0.90755 2.95279,-0.002 0.0226,0.0286 0.0639,0.0354 0.0935,0.014 l 0.17622,-0.12764 c 0.0296,-0.0214 0.0363,-0.0626 0.0139,-0.0915 -0.41754,-0.53799 -1.05793,-0.80589 -1.70274,-0.81804 -0.0182,-3.4e-4 -0.0422,-1.9e-4 -0.0661,0 z m -0.0253,0.64647 c -0.0239,1.2e-4 -0.0479,6.8e-4 -0.0661,0.002 -0.42165,0.0201 -0.82833,0.21351 -1.1622,0.55759 -0.0254,0.0262 -0.0233,0.0678 0.004,0.0925 l 0.16019,0.14728 c 0.0269,0.0247 0.0685,0.0225 0.094,-0.004 0.27506,-0.28117 0.58608,-0.4252 0.90589,-0.4439 0.0365,-0.002 0.0958,-0.002 0.13229,-5.1e-4 0.32443,0.016 0.66191,0.16091 0.98185,0.45475 0.0269,0.0247 0.0686,0.0242 0.0941,-0.002 l 0.15192,-0.15709 c 0.0254,-0.0262 0.0248,-0.0677 -0.002,-0.0925 -0.37699,-0.3482 -0.80269,-0.53744 -1.22731,-0.55346 -0.0183,-6.9e-4 -0.0422,-6.3e-4 -0.0662,-5.1e-4 z m -1.8278,0.56534 c -0.017,8e-4 -0.0341,0.004 -0.0517,0.0109 -0.20631,0.0761 -0.47523,0.95317 -0.60719,2.81068 0.13877,-0.04 0.23409,-0.0651 0.23409,-0.0651 0.0537,-0.015 0.10927,0.0169 0.12351,0.0708 0.0145,0.054 -0.0181,0.10944 -0.0724,0.12299 0,0 -0.1261,0.0327 -0.29921,0.0832 -0.005,0.0821 -0.0102,0.16603 -0.015,0.25115 0.10971,-0.031 0.18138,-0.0496 0.18138,-0.0496 0.0527,-0.0134 0.10643,0.0179 0.12092,0.0703 0.015,0.0536 -0.0166,0.10904 -0.0703,0.12351 0,0 -0.0961,0.025 -0.23512,0.0646 0.007,0.53611 0.14566,0.78558 2.55281,0.8878 2.40716,-0.10222 2.54611,-0.35169 2.55282,-0.8878 -0.13898,-0.0396 -0.23513,-0.0646 -0.23513,-0.0646 -0.0537,-0.0145 -0.0853,-0.07 -0.0703,-0.12351 0.0145,-0.0524 0.0682,-0.0836 0.12092,-0.0703 0,0 0.0717,0.0186 0.18139,0.0496 -0.005,-0.0851 -0.01,-0.16906 -0.015,-0.25115 -0.17311,-0.0505 -0.29921,-0.0832 -0.29921,-0.0832 -0.0543,-0.0136 -0.0869,-0.069 -0.0723,-0.12299 0.0142,-0.0539 0.0698,-0.0858 0.1235,-0.0708 0,0 0.0953,0.0251 0.2341,0.0651 -0.13196,-1.85751 -0.40089,-2.73458 -0.6072,-2.81068 -0.0176,-0.006 -0.0347,-0.0101 -0.0517,-0.0109 -0.25463,-0.0111 -0.68357,0.57682 -0.93792,1.03353 0,0 -0.29045,-0.13642 -0.92398,-0.13642 -0.63352,0 -0.92397,0.13642 -0.92397,0.13642 -0.25436,-0.45671 -0.6833,-1.04461 -0.93793,-1.03353 z m 1.81591,0.11834 c -0.0113,2.6e-4 -0.0219,0.001 -0.031,0.002 -0.26511,0.0161 -0.52192,0.13289 -0.77514,0.33125 -0.0288,0.0225 -0.0321,0.0644 -0.009,0.0925 l 0.13953,0.16795 c 0.0234,0.0281 0.0652,0.0317 0.094,0.009 0.20346,-0.1585 0.38022,-0.2354 0.55035,-0.25063 0.0364,-0.003 0.0959,-0.003 0.1323,5.2e-4 0.1725,0.0165 0.35834,0.0965 0.57464,0.25579 0.0294,0.0217 0.0705,0.0164 0.093,-0.0124 l 0.13384,-0.17105 c 0.0225,-0.0288 0.0169,-0.0702 -0.0124,-0.092 -0.26352,-0.1952 -0.52323,-0.31372 -0.7891,-0.33125 -0.0273,-0.002 -0.0675,-0.002 -0.10129,-0.002 z m -1.78749,0.25063 c 0.1302,-9.7e-4 0.25078,0.4729 0.31988,0.73019 -0.18458,0.0497 -0.33059,-0.0437 -0.57723,0.30748 -0.006,-0.44065 0.15563,-1.04348 0.25735,-1.03767 z m 3.66696,0 c 0.10172,-0.006 0.26321,0.59702 0.25735,1.03767 -0.24664,-0.35115 -0.39265,-0.25775 -0.57722,-0.30748 0.0691,-0.25729 0.18968,-0.73116 0.31987,-0.73019 z m -3.35431,1.85105 0.79633,0.40721 c 0,0 -0.42811,1.38695 -0.79633,-0.40721 z m 3.04167,0 c -0.36822,1.79416 -0.79633,0.40721 -0.79633,0.40721 z m -2.00608,0.81701 a 0.0875,0.0875 0 0 1 0.0269,0.003 0.0875,0.0875 0 0 1 0.0548,0.0393 l 0.20154,0.32814 0.19895,-0.27957 0.26975,0.22273 0.12661,-0.25787 a 0.0875,0.0875 0 0 1 0.11731,-0.0388 0.0875,0.0875 0 0 1 0.0393,0.11731 l -0.22479,0.45682 -0.29508,-0.24443 -0.24184,0.34003 -0.3421,-0.55242 a 0.0875,0.0875 0 0 1 0.0295,-0.12144 0.0875,0.0875 0 0 1 0.0393,-0.0124 z" />
  </g>
</svg>
